<svg width="32" height="33" viewBox="0 0 32 33" fill="none" xmlns="http://www.w3.org/2000/svg">
<path d="M3.99995 11.5179V11.4999C3.99992 9.72201 4.52646 7.98394 5.51315 6.50498C6.49983 5.02602 7.90244 3.87242 9.54402 3.18973C11.1856 2.50704 12.9926 2.32584 14.7371 2.66899C16.4815 3.01215 18.0853 3.86428 19.3459 5.11789C20.3379 4.62831 21.4458 4.42247 22.5474 4.5231C23.6489 4.62374 24.7012 5.02693 25.588 5.68814C26.4748 6.34934 27.1615 7.24282 27.5724 8.26986C27.9832 9.2969 28.1021 10.4175 27.9159 11.5079C28.1896 11.5333 28.4551 11.6148 28.6959 11.7474C28.9366 11.88 29.1475 12.0608 29.3152 12.2785C29.483 12.4962 29.6041 12.7461 29.671 13.0127C29.7379 13.2793 29.7491 13.5568 29.7039 13.8279C28.7999 19.2659 26.5639 22.7079 22.9999 24.1559V25.4999C22.9999 26.2955 22.6839 27.0586 22.1213 27.6212C21.5587 28.1838 20.7956 28.4999 19.9999 28.4999H11.9999C11.2043 28.4999 10.4412 28.1838 9.87863 27.6212C9.31602 27.0586 8.99995 26.2955 8.99995 25.4999V24.1559C5.43595 22.7079 3.19995 19.2659 2.29595 13.8279C2.25232 13.564 2.26207 13.294 2.32464 13.0339C2.3872 12.7738 2.5013 12.529 2.66018 12.3138C2.81906 12.0986 3.01949 11.9174 3.24962 11.7811C3.47974 11.6447 3.73489 11.5559 3.99995 11.5199V11.5179ZM5.99995 11.4999H7.99995C7.99995 10.1738 8.52673 8.90204 9.46441 7.96435C10.4021 7.02667 11.6739 6.49989 12.9999 6.49989C14.326 6.49989 15.5978 7.02667 16.5355 7.96435C17.4732 8.90204 17.9999 10.1738 17.9999 11.4999H19.9999C19.9999 9.64337 19.2624 7.8629 17.9497 6.55014C16.6369 5.23739 14.8565 4.49989 12.9999 4.49989C11.1434 4.49989 9.36295 5.23739 8.0502 6.55014C6.73744 7.8629 5.99995 9.64337 5.99995 11.4999ZM9.99995 11.4999H15.9999C15.9999 10.7042 15.6839 9.94118 15.1213 9.37857C14.5587 8.81596 13.7956 8.49989 12.9999 8.49989C12.2043 8.49989 11.4412 8.81596 10.8786 9.37857C10.316 9.94118 9.99995 10.7042 9.99995 11.4999ZM23.7319 11.4999H25.8739C26.0249 10.9088 26.039 10.2911 25.9151 9.69379C25.7912 9.09647 25.5326 8.53532 25.1589 8.05309C24.7853 7.57086 24.3065 7.18028 23.7591 6.91112C23.2116 6.64195 22.61 6.5013 21.9999 6.49989C21.5199 6.49989 21.0639 6.58389 20.6399 6.73789C20.9939 7.30589 21.2859 7.91789 21.5099 8.55989C21.8909 8.46541 22.2912 8.48486 22.6611 8.61584C23.0311 8.74681 23.3545 8.98354 23.5911 9.29665C23.8278 9.60975 23.9673 9.98545 23.9923 10.3771C24.0173 10.7688 23.9268 11.1592 23.7319 11.4999ZM20.9999 24.4999H10.9999V25.4999C10.9999 25.7651 11.1053 26.0195 11.2928 26.207C11.4804 26.3945 11.7347 26.4999 11.9999 26.4999H19.9999C20.2652 26.4999 20.5195 26.3945 20.7071 26.207C20.8946 26.0195 20.9999 25.7651 20.9999 25.4999V24.4999ZM10.2959 22.4999H21.7039C24.8759 21.4799 26.8839 18.5959 27.7319 13.4999H4.26795C5.11595 18.5959 7.12395 21.4799 10.2959 22.4999Z" fill="#65A30D"/>
</svg>
