<svg width="33" height="33" viewBox="0 0 33 33" fill="none" xmlns="http://www.w3.org/2000/svg">
<path d="M21.9648 14.4996C21.9648 14.7648 21.8595 15.0191 21.672 15.2067C21.4844 15.3942 21.2301 15.4996 20.9648 15.4996H12.9648C12.6996 15.4996 12.4453 15.3942 12.2577 15.2067C12.0702 15.0191 11.9648 14.7648 11.9648 14.4996C11.9648 14.2343 12.0702 13.98 12.2577 13.7924C12.4453 13.6049 12.6996 13.4996 12.9648 13.4996H20.9648C21.2301 13.4996 21.4844 13.6049 21.672 13.7924C21.8595 13.98 21.9648 14.2343 21.9648 14.4996ZM20.9648 17.4996H12.9648C12.6996 17.4996 12.4453 17.6049 12.2577 17.7924C12.0702 17.98 11.9648 18.2343 11.9648 18.4996C11.9648 18.7648 12.0702 19.0191 12.2577 19.2067C12.4453 19.3942 12.6996 19.4996 12.9648 19.4996H20.9648C21.2301 19.4996 21.4844 19.3942 21.672 19.2067C21.8595 19.0191 21.9648 18.7648 21.9648 18.4996C21.9648 18.2343 21.8595 17.98 21.672 17.7924C21.4844 17.6049 21.2301 17.4996 20.9648 17.4996ZM29.9648 16.4996C29.9653 18.744 29.3847 20.9503 28.2796 22.9037C27.1744 24.8572 25.5823 26.4912 23.6582 27.6468C21.7342 28.8024 19.5437 29.4402 17.3 29.4981C15.0563 29.5559 12.8359 29.0319 10.8548 27.9771L6.59859 29.3958C6.2462 29.5133 5.86804 29.5304 5.5065 29.4451C5.14496 29.3597 4.81433 29.1754 4.55166 28.9127C4.28899 28.6501 4.10466 28.3194 4.01934 27.9579C3.93402 27.5964 3.95107 27.2182 4.06859 26.8658L5.48734 22.6096C4.56003 20.8661 4.04209 18.9343 3.97284 16.9608C3.90359 14.9872 4.28485 13.0239 5.08768 11.2197C5.89051 9.41555 7.09381 7.81798 8.60624 6.54829C10.1187 5.2786 11.9005 4.37015 13.8164 3.89189C15.7324 3.41364 17.7321 3.37816 19.6638 3.78814C21.5955 4.19811 23.4084 5.04278 24.9649 6.25801C26.5215 7.47325 27.7807 9.02712 28.647 10.8017C29.5134 12.5762 29.964 14.5248 29.9648 16.4996ZM27.9648 16.4996C27.9644 14.8122 27.5757 13.1476 26.829 11.6345C26.0822 10.1214 24.9974 8.80034 23.6584 7.77359C22.3194 6.74684 20.7621 6.04189 19.1071 5.71328C17.452 5.38468 15.7436 5.44122 14.1139 5.87855C12.4842 6.31587 10.977 7.12225 9.70878 8.23529C8.44061 9.34833 7.44549 10.7382 6.80042 12.2974C6.15535 13.8566 5.87762 15.5432 5.98871 17.2269C6.09981 18.9106 6.59675 20.5462 7.44109 22.007C7.51196 22.1297 7.55596 22.266 7.57018 22.4069C7.58441 22.5479 7.56853 22.6902 7.52359 22.8246L5.96484 27.4995L10.6398 25.9408C10.7417 25.9061 10.8485 25.8883 10.9561 25.8883C11.1317 25.8886 11.3042 25.9352 11.4561 26.0233C13.1283 26.9908 15.0259 27.5009 16.9579 27.5021C18.8899 27.5033 20.7881 26.9957 22.4616 26.0303C24.135 25.0648 25.5247 23.6757 26.4908 22.0026C27.4569 20.3295 27.9653 18.4315 27.9648 16.4996Z" fill="#65A30D"/>
</svg>
